<?xml version="1.0" encoding="UTF-8"?>
<!DOCTYPE svg PUBLIC "-//W3C//DTD SVG 1.1//EN" "http://www.w3.org/Graphics/SVG/1.1/DTD/svg11.dtd">
<!-- Creator: CorelDRAW 2021 (64-Bit) -->
<svg xmlns="http://www.w3.org/2000/svg" xml:space="preserve" width="0.820185in" height="0.936669in" version="1.1" style="shape-rendering:geometricPrecision; text-rendering:geometricPrecision; image-rendering:optimizeQuality; fill-rule:evenodd; clip-rule:evenodd"
viewBox="0 0 471.45 538.41"
 xmlns:xlink="http://www.w3.org/1999/xlink"
 xmlns:xodm="http://www.corel.com/coreldraw/odm/2003">
 <defs>
  <style type="text/css">
   <![CDATA[
    .fil1 {fill:#1976D2}
    .fil2 {fill:#1976D2}
    .fil0 {fill:#329AF3}
   ]]>
  </style>
 </defs>
 <g id="C:_x005c_Users_x005c_FemiBright_x005c_Downloads_x005c_FireShot_x005c_800x600.gif_x0020_63">
  <metadata id="CorelCorpID_0Corel-Layer"/>
  <g id="_2489621680192">
   <path class="fil0" d="M271.51 133.47c80.39,16.54 140.83,87.7 140.83,172.98 0,97.54 -79.07,176.61 -176.61,176.61 -97.54,0 -176.61,-79.07 -176.61,-176.61 0,-85.78 61.15,-157.26 142.24,-173.26l3.41 12.11c-75.81,14.48 -133.11,81.12 -133.11,161.15 0,90.62 73.46,164.08 164.08,164.08 90.62,0 164.08,-73.46 164.08,-164.08 0,-79.62 -56.72,-145.99 -131.96,-160.93 1.31,-3.95 2.58,-8.1 3.66,-12.05z"/>
   <path class="fil1" d="M235.76 427.03c7.29,-6.71 12.52,-15.88 18.57,-24.17 6.61,-9.07 12.67,-17.24 18.86,-25.69 27.9,-38.04 25.47,-25.37 17.05,-58.47l-34.04 -141.02 -40.73 -0.14c-9.65,46.88 -25.72,109.98 -38.2,157.8 -2.41,9.24 -2.79,9.5 2.15,16.18 10.11,13.68 50.98,71.11 56.36,75.5z"/>
   <path class="fil0" d="M324.91 295.8c-0.03,-2.57 -0.77,-5.69 -1.25,-8.63 -0.52,-3.21 -0.98,-6.11 -1.46,-9.1 -2.16,-13.47 -0.43,-9.55 -7.11,-18.58l-28.2 -38.64 -6.01 3.31c6.29,14.57 14.31,34.43 20.34,49.51 1.17,2.91 1.15,3.02 2.98,4.58 3.74,3.19 19.19,16.7 20.7,17.55z"/>
   <path class="fil1" d="M215.95 157.28l38.9 0.22c3.56,-6.48 10.32,-27.73 10.62,-35.15l-59.36 -0.05 9.84 34.98z"/>
   <path class="fil2" d="M235.72 66.96c15.94,0 31.5,1.59 46.56,4.61l-10.08 33.12c-11.84,-2.17 -24.02,-3.31 -36.48,-3.31 -12.93,0 -25.57,1.24 -37.82,3.56l-10.07 -33.11c15.46,-3.19 31.48,-4.87 47.89,-4.87zm73.11 11.58c94.4,30.77 162.61,119.48 162.61,224.15 0,130.19 -105.54,235.72 -235.73,235.72 -130.19,0 -235.72,-105.54 -235.72,-235.72 0,-104.19 67.6,-192.58 161.33,-223.73l10.02 32.94c-79.61,26.85 -136.93,102.13 -136.93,190.79 0,111.17 90.13,201.3 201.3,201.3 111.18,0 201.31,-90.13 201.31,-201.3 0,-89.14 -57.94,-164.73 -138.21,-191.21l10.02 -32.94z"/>
   <path class="fil2" d="M235.72 0c22.72,0 44.84,2.52 66.12,7.26l-12.91 42.43c-17.17,-3.59 -34.97,-5.5 -53.21,-5.5 -18.71,0 -36.96,2.01 -54.54,5.78l-12.91 -42.43c21.69,-4.94 44.26,-7.55 67.44,-7.55z"/>
   <path class="fil0" d="M282.28 71.56c-15.06,-3.01 -30.62,-4.61 -46.56,-4.61 -16.41,0 -32.43,1.68 -47.89,4.87l10.07 33.11c12.25,-2.33 24.89,-3.56 37.82,-3.56 12.46,0 24.65,1.14 36.48,3.31l10.08 -33.12z"/>
  </g>
 </g>
</svg>
